<mxfile host="app.diagrams.net" modified="2024-01-15T01:20:32.595Z" agent="Mozilla/5.0 (X11; Ubuntu; Linux x86_64; rv:121.0) Gecko/20100101 Firefox/121.0" etag="y12bs530J0YedcO3o77i" version="22.1.18" type="github" pages="2">
  <diagram name="Page-1" id="Uiu4wbFv9RFSIKA2n1KZ">
    <mxGraphModel dx="2314" dy="2480" grid="1" gridSize="10" guides="1" tooltips="1" connect="1" arrows="1" fold="1" page="1" pageScale="1" pageWidth="850" pageHeight="1100" math="0" shadow="0">
      <root>
        <mxCell id="0" />
        <mxCell id="1" parent="0" />
        <mxCell id="6SFFoyV-yTu_emAH-91S-1" value="" style="rounded=0;whiteSpace=wrap;html=1;movable=0;resizable=0;rotatable=0;deletable=0;editable=0;locked=1;connectable=0;" parent="1" vertex="1">
          <mxGeometry x="70" y="-580" width="1568.5" height="1500" as="geometry" />
        </mxCell>
        <mxCell id="6SFFoyV-yTu_emAH-91S-2" style="edgeStyle=orthogonalEdgeStyle;rounded=0;orthogonalLoop=1;jettySize=auto;html=1;entryX=0;entryY=0.5;entryDx=0;entryDy=0;fillColor=#76608a;strokeColor=#432D57;exitX=1;exitY=0.5;exitDx=0;exitDy=0;" parent="1" source="6SFFoyV-yTu_emAH-91S-3" target="6SFFoyV-yTu_emAH-91S-4" edge="1">
          <mxGeometry relative="1" as="geometry" />
        </mxCell>
        <mxCell id="6SFFoyV-yTu_emAH-91S-3" value="" style="rounded=0;whiteSpace=wrap;html=1;" parent="1" vertex="1">
          <mxGeometry x="130" y="-80" width="210" height="280" as="geometry" />
        </mxCell>
        <mxCell id="6SFFoyV-yTu_emAH-91S-4" value="" style="rounded=0;whiteSpace=wrap;html=1;" parent="1" vertex="1">
          <mxGeometry x="470" y="-80" width="210" height="280" as="geometry" />
        </mxCell>
        <mxCell id="6SFFoyV-yTu_emAH-91S-5" value="&lt;font style=&quot;font-size: 36px;&quot;&gt;Kelapa Sawit&lt;/font&gt;" style="text;html=1;strokeColor=none;fillColor=none;align=center;verticalAlign=middle;whiteSpace=wrap;rounded=0;" parent="1" vertex="1">
          <mxGeometry x="170" y="60" width="130" height="50" as="geometry" />
        </mxCell>
        <mxCell id="6SFFoyV-yTu_emAH-91S-6" value="&lt;font style=&quot;font-size: 24px;&quot;&gt;Login&lt;/font&gt;" style="text;html=1;strokeColor=none;fillColor=none;align=center;verticalAlign=middle;whiteSpace=wrap;rounded=0;" parent="1" vertex="1">
          <mxGeometry x="525" y="-70" width="100" height="60" as="geometry" />
        </mxCell>
        <mxCell id="6SFFoyV-yTu_emAH-91S-7" value="No. Hp" style="text;html=1;strokeColor=none;fillColor=none;align=center;verticalAlign=middle;whiteSpace=wrap;rounded=0;" parent="1" vertex="1">
          <mxGeometry x="490" y="30" width="60" height="30" as="geometry" />
        </mxCell>
        <mxCell id="6SFFoyV-yTu_emAH-91S-8" value="Password" style="text;html=1;strokeColor=none;fillColor=none;align=center;verticalAlign=middle;whiteSpace=wrap;rounded=0;" parent="1" vertex="1">
          <mxGeometry x="500" y="70" width="60" height="30" as="geometry" />
        </mxCell>
        <mxCell id="6SFFoyV-yTu_emAH-91S-9" value="" style="endArrow=none;html=1;rounded=0;exitX=0;exitY=1;exitDx=0;exitDy=0;" parent="1" edge="1">
          <mxGeometry width="50" height="50" relative="1" as="geometry">
            <mxPoint x="500" y="60" as="sourcePoint" />
            <mxPoint x="570" y="60" as="targetPoint" />
          </mxGeometry>
        </mxCell>
        <mxCell id="6SFFoyV-yTu_emAH-91S-10" value="" style="endArrow=none;html=1;rounded=0;exitX=0;exitY=1;exitDx=0;exitDy=0;" parent="1" edge="1">
          <mxGeometry width="50" height="50" relative="1" as="geometry">
            <mxPoint x="500" y="100" as="sourcePoint" />
            <mxPoint x="570" y="100" as="targetPoint" />
          </mxGeometry>
        </mxCell>
        <mxCell id="6SFFoyV-yTu_emAH-91S-11" value="Login" style="rounded=1;whiteSpace=wrap;html=1;" parent="1" vertex="1">
          <mxGeometry x="525" y="120" width="70" height="30" as="geometry" />
        </mxCell>
        <mxCell id="6SFFoyV-yTu_emAH-91S-12" style="edgeStyle=orthogonalEdgeStyle;rounded=0;orthogonalLoop=1;jettySize=auto;html=1;entryX=0;entryY=0.5;entryDx=0;entryDy=0;exitX=1;exitY=0.5;exitDx=0;exitDy=0;strokeColor=#FF051E;" parent="1" source="6SFFoyV-yTu_emAH-91S-11" target="6SFFoyV-yTu_emAH-91S-50" edge="1">
          <mxGeometry relative="1" as="geometry">
            <Array as="points">
              <mxPoint x="710" y="135" />
              <mxPoint x="710" y="40" />
            </Array>
          </mxGeometry>
        </mxCell>
        <mxCell id="6SFFoyV-yTu_emAH-91S-13" value="" style="rounded=0;whiteSpace=wrap;html=1;" parent="1" vertex="1">
          <mxGeometry x="1060" y="-155" width="180" height="290" as="geometry" />
        </mxCell>
        <mxCell id="6SFFoyV-yTu_emAH-91S-14" value="&lt;font style=&quot;font-size: 24px;&quot;&gt;Foto Hasil Panen&lt;/font&gt;" style="text;html=1;strokeColor=none;fillColor=none;align=center;verticalAlign=middle;whiteSpace=wrap;rounded=0;" parent="1" vertex="1">
          <mxGeometry x="1077.5" y="-135" width="145" height="30" as="geometry" />
        </mxCell>
        <mxCell id="6SFFoyV-yTu_emAH-91S-15" value="Foto" style="rounded=0;whiteSpace=wrap;html=1;" parent="1" vertex="1">
          <mxGeometry x="1090" y="-75" width="120" height="160" as="geometry" />
        </mxCell>
        <mxCell id="6SFFoyV-yTu_emAH-91S-16" value="Lanjut" style="rounded=1;whiteSpace=wrap;html=1;" parent="1" vertex="1">
          <mxGeometry x="1125" y="95" width="50" height="30" as="geometry" />
        </mxCell>
        <mxCell id="6SFFoyV-yTu_emAH-91S-17" style="edgeStyle=orthogonalEdgeStyle;rounded=0;orthogonalLoop=1;jettySize=auto;html=1;strokeColor=#250DFF;entryX=-0.016;entryY=0.479;entryDx=0;entryDy=0;entryPerimeter=0;" parent="1" source="6SFFoyV-yTu_emAH-91S-16" target="6SFFoyV-yTu_emAH-91S-19" edge="1">
          <mxGeometry relative="1" as="geometry">
            <mxPoint x="1410" y="-210" as="targetPoint" />
            <Array as="points">
              <mxPoint x="1280" y="110" />
              <mxPoint x="1280" y="-26" />
            </Array>
          </mxGeometry>
        </mxCell>
        <mxCell id="6SFFoyV-yTu_emAH-91S-18" value="" style="group" parent="1" connectable="0" vertex="1">
          <mxGeometry x="1340" y="-165" width="210" height="290" as="geometry" />
        </mxCell>
        <mxCell id="6SFFoyV-yTu_emAH-91S-19" value="" style="rounded=0;whiteSpace=wrap;html=1;" parent="6SFFoyV-yTu_emAH-91S-18" vertex="1">
          <mxGeometry width="210" height="290" as="geometry" />
        </mxCell>
        <mxCell id="6SFFoyV-yTu_emAH-91S-20" value="&lt;font style=&quot;font-size: 24px;&quot;&gt;Formulir&lt;/font&gt;" style="text;html=1;strokeColor=none;fillColor=none;align=center;verticalAlign=middle;whiteSpace=wrap;rounded=0;" parent="6SFFoyV-yTu_emAH-91S-18" vertex="1">
          <mxGeometry x="55" y="10" width="100" height="60" as="geometry" />
        </mxCell>
        <mxCell id="6SFFoyV-yTu_emAH-91S-21" value="" style="rounded=0;whiteSpace=wrap;html=1;" parent="6SFFoyV-yTu_emAH-91S-18" vertex="1">
          <mxGeometry x="10" y="90" width="180" height="20" as="geometry" />
        </mxCell>
        <mxCell id="6SFFoyV-yTu_emAH-91S-22" value="" style="rounded=0;whiteSpace=wrap;html=1;" parent="6SFFoyV-yTu_emAH-91S-18" vertex="1">
          <mxGeometry x="10" y="120" width="180" height="20" as="geometry" />
        </mxCell>
        <mxCell id="6SFFoyV-yTu_emAH-91S-23" value="" style="rounded=0;whiteSpace=wrap;html=1;" parent="6SFFoyV-yTu_emAH-91S-18" vertex="1">
          <mxGeometry x="10" y="150" width="180" height="20" as="geometry" />
        </mxCell>
        <mxCell id="6SFFoyV-yTu_emAH-91S-24" value="Tanda Tangan" style="rounded=0;whiteSpace=wrap;html=1;" parent="6SFFoyV-yTu_emAH-91S-18" vertex="1">
          <mxGeometry x="10" y="180" width="180" height="60" as="geometry" />
        </mxCell>
        <mxCell id="6SFFoyV-yTu_emAH-91S-25" value="Kirim" style="rounded=1;whiteSpace=wrap;html=1;" parent="6SFFoyV-yTu_emAH-91S-18" vertex="1">
          <mxGeometry x="65" y="250" width="70" height="30" as="geometry" />
        </mxCell>
        <mxCell id="6SFFoyV-yTu_emAH-91S-26" value="" style="rounded=0;whiteSpace=wrap;html=1;" parent="1" vertex="1">
          <mxGeometry x="850" y="-510" width="180" height="290" as="geometry" />
        </mxCell>
        <mxCell id="6SFFoyV-yTu_emAH-91S-27" value="&lt;font style=&quot;font-size: 24px;&quot;&gt;Foto Hasil Panen&lt;/font&gt;" style="text;html=1;strokeColor=none;fillColor=none;align=center;verticalAlign=middle;whiteSpace=wrap;rounded=0;" parent="1" vertex="1">
          <mxGeometry x="867.5" y="-490" width="145" height="30" as="geometry" />
        </mxCell>
        <mxCell id="6SFFoyV-yTu_emAH-91S-28" value="Foto" style="rounded=0;whiteSpace=wrap;html=1;" parent="1" vertex="1">
          <mxGeometry x="880" y="-430" width="120" height="160" as="geometry" />
        </mxCell>
        <mxCell id="6SFFoyV-yTu_emAH-91S-29" style="edgeStyle=orthogonalEdgeStyle;rounded=0;orthogonalLoop=1;jettySize=auto;html=1;entryX=0;entryY=0.5;entryDx=0;entryDy=0;strokeColor=#663300;" parent="1" source="6SFFoyV-yTu_emAH-91S-30" target="6SFFoyV-yTu_emAH-91S-32" edge="1">
          <mxGeometry relative="1" as="geometry">
            <Array as="points">
              <mxPoint x="1060" y="-245" />
              <mxPoint x="1060" y="-365" />
            </Array>
          </mxGeometry>
        </mxCell>
        <mxCell id="6SFFoyV-yTu_emAH-91S-30" value="Lanjut" style="rounded=1;whiteSpace=wrap;html=1;" parent="1" vertex="1">
          <mxGeometry x="915" y="-260" width="50" height="30" as="geometry" />
        </mxCell>
        <mxCell id="6SFFoyV-yTu_emAH-91S-31" value="" style="group" parent="1" connectable="0" vertex="1">
          <mxGeometry x="1120" y="-510" width="210" height="290" as="geometry" />
        </mxCell>
        <mxCell id="6SFFoyV-yTu_emAH-91S-32" value="" style="rounded=0;whiteSpace=wrap;html=1;" parent="6SFFoyV-yTu_emAH-91S-31" vertex="1">
          <mxGeometry width="210" height="290" as="geometry" />
        </mxCell>
        <mxCell id="6SFFoyV-yTu_emAH-91S-33" value="&lt;font style=&quot;font-size: 24px;&quot;&gt;Formulir&lt;/font&gt;" style="text;html=1;strokeColor=none;fillColor=none;align=center;verticalAlign=middle;whiteSpace=wrap;rounded=0;" parent="6SFFoyV-yTu_emAH-91S-31" vertex="1">
          <mxGeometry x="55" y="10" width="100" height="60" as="geometry" />
        </mxCell>
        <mxCell id="6SFFoyV-yTu_emAH-91S-34" value="Data" style="rounded=0;whiteSpace=wrap;html=1;align=left;" parent="6SFFoyV-yTu_emAH-91S-31" vertex="1">
          <mxGeometry x="10" y="90" width="180" height="20" as="geometry" />
        </mxCell>
        <mxCell id="6SFFoyV-yTu_emAH-91S-35" value="Data" style="rounded=0;whiteSpace=wrap;html=1;align=left;" parent="6SFFoyV-yTu_emAH-91S-31" vertex="1">
          <mxGeometry x="10" y="120" width="180" height="20" as="geometry" />
        </mxCell>
        <mxCell id="6SFFoyV-yTu_emAH-91S-36" value="Data" style="rounded=0;whiteSpace=wrap;html=1;align=left;" parent="6SFFoyV-yTu_emAH-91S-31" vertex="1">
          <mxGeometry x="10" y="150" width="180" height="20" as="geometry" />
        </mxCell>
        <mxCell id="6SFFoyV-yTu_emAH-91S-37" value="kirim" style="rounded=1;whiteSpace=wrap;html=1;" parent="6SFFoyV-yTu_emAH-91S-31" vertex="1">
          <mxGeometry x="65" y="250" width="70" height="30" as="geometry" />
        </mxCell>
        <mxCell id="6SFFoyV-yTu_emAH-91S-38" value="Tanda Tangan" style="rounded=0;whiteSpace=wrap;html=1;" parent="6SFFoyV-yTu_emAH-91S-31" vertex="1">
          <mxGeometry x="10" y="180" width="180" height="40" as="geometry" />
        </mxCell>
        <mxCell id="6SFFoyV-yTu_emAH-91S-40" style="edgeStyle=orthogonalEdgeStyle;rounded=0;orthogonalLoop=1;jettySize=auto;html=1;strokeColor=#663300;entryX=0.5;entryY=0;entryDx=0;entryDy=0;" parent="1" source="6SFFoyV-yTu_emAH-91S-37" target="6SFFoyV-yTu_emAH-91S-50" edge="1">
          <mxGeometry relative="1" as="geometry">
            <Array as="points">
              <mxPoint x="1350" y="-245" />
              <mxPoint x="1350" y="-200" />
              <mxPoint x="860" y="-200" />
            </Array>
            <mxPoint x="870" y="-200" as="targetPoint" />
          </mxGeometry>
        </mxCell>
        <mxCell id="6SFFoyV-yTu_emAH-91S-41" value="" style="rounded=0;whiteSpace=wrap;html=1;" parent="1" vertex="1">
          <mxGeometry x="770" y="250" width="180" height="290" as="geometry" />
        </mxCell>
        <mxCell id="6SFFoyV-yTu_emAH-91S-42" style="edgeStyle=orthogonalEdgeStyle;rounded=0;orthogonalLoop=1;jettySize=auto;html=1;strokeColor=#660033;" parent="1" source="6SFFoyV-yTu_emAH-91S-80" target="6SFFoyV-yTu_emAH-91S-41" edge="1">
          <mxGeometry relative="1" as="geometry" />
        </mxCell>
        <mxCell id="6SFFoyV-yTu_emAH-91S-43" value="&lt;font style=&quot;font-size: 18px;&quot;&gt;Data Hasil Panen&lt;/font&gt;" style="text;html=1;strokeColor=none;fillColor=none;align=center;verticalAlign=middle;whiteSpace=wrap;rounded=0;" parent="1" vertex="1">
          <mxGeometry x="776.25" y="260" width="167.5" height="30" as="geometry" />
        </mxCell>
        <mxCell id="6SFFoyV-yTu_emAH-91S-44" value="10 Oktober 2010" style="text;html=1;strokeColor=none;fillColor=none;align=center;verticalAlign=middle;whiteSpace=wrap;rounded=0;" parent="1" vertex="1">
          <mxGeometry x="810" y="285" width="100" height="30" as="geometry" />
        </mxCell>
        <mxCell id="6SFFoyV-yTu_emAH-91S-45" value="Foto Hasil Panen Sawit&amp;nbsp;" style="rounded=0;whiteSpace=wrap;html=1;align=left;" parent="1" vertex="1">
          <mxGeometry x="777" y="340" width="163" height="20" as="geometry" />
        </mxCell>
        <mxCell id="6SFFoyV-yTu_emAH-91S-46" value="Hasil Input Data" style="rounded=0;whiteSpace=wrap;html=1;align=left;" parent="1" vertex="1">
          <mxGeometry x="777" y="370" width="163" height="90" as="geometry" />
        </mxCell>
        <mxCell id="6SFFoyV-yTu_emAH-91S-47" value="Tanda Tangan" style="rounded=0;whiteSpace=wrap;html=1;align=center;" parent="1" vertex="1">
          <mxGeometry x="780" y="470" width="160" height="20" as="geometry" />
        </mxCell>
        <mxCell id="6SFFoyV-yTu_emAH-91S-48" value="Kembali" style="rounded=1;whiteSpace=wrap;html=1;" parent="1" vertex="1">
          <mxGeometry x="835" y="510" width="50" height="20" as="geometry" />
        </mxCell>
        <mxCell id="6SFFoyV-yTu_emAH-91S-49" value="" style="group" parent="1" connectable="0" vertex="1">
          <mxGeometry x="770" y="-105" width="180" height="290" as="geometry" />
        </mxCell>
        <mxCell id="6SFFoyV-yTu_emAH-91S-50" value="" style="rounded=0;whiteSpace=wrap;html=1;" parent="6SFFoyV-yTu_emAH-91S-49" vertex="1">
          <mxGeometry width="180" height="290" as="geometry" />
        </mxCell>
        <mxCell id="6SFFoyV-yTu_emAH-91S-51" value="&lt;span style=&quot;font-size: 24px;&quot;&gt;Beranda&lt;/span&gt;" style="text;html=1;strokeColor=none;fillColor=none;align=center;verticalAlign=middle;whiteSpace=wrap;rounded=0;" parent="6SFFoyV-yTu_emAH-91S-49" vertex="1">
          <mxGeometry x="40" y="10" width="100" height="60" as="geometry" />
        </mxCell>
        <mxCell id="6SFFoyV-yTu_emAH-91S-52" value="Tambah" style="rounded=1;whiteSpace=wrap;html=1;" parent="6SFFoyV-yTu_emAH-91S-49" vertex="1">
          <mxGeometry x="65" y="80" width="50" height="30" as="geometry" />
        </mxCell>
        <mxCell id="6SFFoyV-yTu_emAH-91S-53" value="" style="rounded=0;whiteSpace=wrap;html=1;" parent="6SFFoyV-yTu_emAH-91S-49" vertex="1">
          <mxGeometry x="10" y="130" width="160" height="150" as="geometry" />
        </mxCell>
        <mxCell id="6SFFoyV-yTu_emAH-91S-54" value="" style="rounded=0;whiteSpace=wrap;html=1;" parent="6SFFoyV-yTu_emAH-91S-49" vertex="1">
          <mxGeometry x="10" y="160" width="160" height="30" as="geometry" />
        </mxCell>
        <mxCell id="6SFFoyV-yTu_emAH-91S-55" value="" style="rounded=0;whiteSpace=wrap;html=1;" parent="6SFFoyV-yTu_emAH-91S-49" vertex="1">
          <mxGeometry x="10" y="190" width="160" height="30" as="geometry" />
        </mxCell>
        <mxCell id="6SFFoyV-yTu_emAH-91S-56" value="" style="rounded=0;whiteSpace=wrap;html=1;" parent="6SFFoyV-yTu_emAH-91S-49" vertex="1">
          <mxGeometry x="10" y="220" width="160" height="30" as="geometry" />
        </mxCell>
        <mxCell id="6SFFoyV-yTu_emAH-91S-57" value="" style="group" parent="6SFFoyV-yTu_emAH-91S-49" vertex="1" connectable="0">
          <mxGeometry x="10" y="130" width="160" height="30" as="geometry" />
        </mxCell>
        <mxCell id="6SFFoyV-yTu_emAH-91S-58" value="&lt;div style=&quot;&quot;&gt;&lt;span style=&quot;background-color: initial;&quot;&gt;Data 1&lt;/span&gt;&lt;/div&gt;" style="rounded=0;whiteSpace=wrap;html=1;align=left;" parent="6SFFoyV-yTu_emAH-91S-57" vertex="1">
          <mxGeometry width="160" height="30" as="geometry" />
        </mxCell>
        <mxCell id="6SFFoyV-yTu_emAH-91S-59" value="D" style="rounded=1;whiteSpace=wrap;html=1;" parent="6SFFoyV-yTu_emAH-91S-57" vertex="1">
          <mxGeometry x="130" y="5" width="20" height="20" as="geometry" />
        </mxCell>
        <mxCell id="6SFFoyV-yTu_emAH-91S-60" value="R" style="rounded=1;whiteSpace=wrap;html=1;" parent="6SFFoyV-yTu_emAH-91S-57" vertex="1">
          <mxGeometry x="105" y="5" width="20" height="20" as="geometry" />
        </mxCell>
        <mxCell id="6SFFoyV-yTu_emAH-91S-61" value="U" style="rounded=1;whiteSpace=wrap;html=1;" parent="6SFFoyV-yTu_emAH-91S-57" vertex="1">
          <mxGeometry x="80" y="5" width="20" height="20" as="geometry" />
        </mxCell>
        <mxCell id="6SFFoyV-yTu_emAH-91S-62" value="" style="group" parent="6SFFoyV-yTu_emAH-91S-49" vertex="1" connectable="0">
          <mxGeometry x="10" y="160" width="160" height="30" as="geometry" />
        </mxCell>
        <mxCell id="6SFFoyV-yTu_emAH-91S-63" value="&lt;div style=&quot;&quot;&gt;&lt;span style=&quot;background-color: initial;&quot;&gt;Data 2&lt;/span&gt;&lt;/div&gt;" style="rounded=0;whiteSpace=wrap;html=1;align=left;" parent="6SFFoyV-yTu_emAH-91S-62" vertex="1">
          <mxGeometry width="160" height="30" as="geometry" />
        </mxCell>
        <mxCell id="6SFFoyV-yTu_emAH-91S-64" value="D" style="rounded=1;whiteSpace=wrap;html=1;" parent="6SFFoyV-yTu_emAH-91S-62" vertex="1">
          <mxGeometry x="130" y="5" width="20" height="20" as="geometry" />
        </mxCell>
        <mxCell id="6SFFoyV-yTu_emAH-91S-65" value="R" style="rounded=1;whiteSpace=wrap;html=1;" parent="6SFFoyV-yTu_emAH-91S-62" vertex="1">
          <mxGeometry x="105" y="5" width="20" height="20" as="geometry" />
        </mxCell>
        <mxCell id="6SFFoyV-yTu_emAH-91S-66" value="U" style="rounded=1;whiteSpace=wrap;html=1;" parent="6SFFoyV-yTu_emAH-91S-62" vertex="1">
          <mxGeometry x="80" y="5" width="20" height="20" as="geometry" />
        </mxCell>
        <mxCell id="6SFFoyV-yTu_emAH-91S-67" value="" style="group" parent="6SFFoyV-yTu_emAH-91S-49" vertex="1" connectable="0">
          <mxGeometry x="10" y="190" width="160" height="30" as="geometry" />
        </mxCell>
        <mxCell id="6SFFoyV-yTu_emAH-91S-68" value="&lt;div style=&quot;&quot;&gt;&lt;span style=&quot;background-color: initial;&quot;&gt;Data 3&lt;/span&gt;&lt;/div&gt;" style="rounded=0;whiteSpace=wrap;html=1;align=left;" parent="6SFFoyV-yTu_emAH-91S-67" vertex="1">
          <mxGeometry width="160" height="30" as="geometry" />
        </mxCell>
        <mxCell id="6SFFoyV-yTu_emAH-91S-69" value="D" style="rounded=1;whiteSpace=wrap;html=1;" parent="6SFFoyV-yTu_emAH-91S-67" vertex="1">
          <mxGeometry x="130" y="5" width="20" height="20" as="geometry" />
        </mxCell>
        <mxCell id="6SFFoyV-yTu_emAH-91S-70" value="R" style="rounded=1;whiteSpace=wrap;html=1;" parent="6SFFoyV-yTu_emAH-91S-67" vertex="1">
          <mxGeometry x="105" y="5" width="20" height="20" as="geometry" />
        </mxCell>
        <mxCell id="6SFFoyV-yTu_emAH-91S-71" value="U" style="rounded=1;whiteSpace=wrap;html=1;" parent="6SFFoyV-yTu_emAH-91S-67" vertex="1">
          <mxGeometry x="80" y="5" width="20" height="20" as="geometry" />
        </mxCell>
        <mxCell id="6SFFoyV-yTu_emAH-91S-72" value="" style="group" parent="6SFFoyV-yTu_emAH-91S-49" vertex="1" connectable="0">
          <mxGeometry x="10" y="220" width="160" height="30" as="geometry" />
        </mxCell>
        <mxCell id="6SFFoyV-yTu_emAH-91S-73" value="&lt;div style=&quot;&quot;&gt;&lt;span style=&quot;background-color: initial;&quot;&gt;Data 4&lt;/span&gt;&lt;/div&gt;" style="rounded=0;whiteSpace=wrap;html=1;align=left;" parent="6SFFoyV-yTu_emAH-91S-72" vertex="1">
          <mxGeometry width="160" height="30" as="geometry" />
        </mxCell>
        <mxCell id="6SFFoyV-yTu_emAH-91S-74" value="D" style="rounded=1;whiteSpace=wrap;html=1;" parent="6SFFoyV-yTu_emAH-91S-72" vertex="1">
          <mxGeometry x="130" y="5" width="20" height="20" as="geometry" />
        </mxCell>
        <mxCell id="6SFFoyV-yTu_emAH-91S-75" value="R" style="rounded=1;whiteSpace=wrap;html=1;" parent="6SFFoyV-yTu_emAH-91S-72" vertex="1">
          <mxGeometry x="105" y="5" width="20" height="20" as="geometry" />
        </mxCell>
        <mxCell id="6SFFoyV-yTu_emAH-91S-76" value="U" style="rounded=1;whiteSpace=wrap;html=1;" parent="6SFFoyV-yTu_emAH-91S-72" vertex="1">
          <mxGeometry x="80" y="5" width="20" height="20" as="geometry" />
        </mxCell>
        <mxCell id="6SFFoyV-yTu_emAH-91S-77" value="" style="group" parent="6SFFoyV-yTu_emAH-91S-49" vertex="1" connectable="0">
          <mxGeometry x="10" y="250" width="160" height="30" as="geometry" />
        </mxCell>
        <mxCell id="6SFFoyV-yTu_emAH-91S-78" value="&lt;div style=&quot;&quot;&gt;&lt;span style=&quot;background-color: initial;&quot;&gt;Data 5&lt;/span&gt;&lt;/div&gt;" style="rounded=0;whiteSpace=wrap;html=1;align=left;" parent="6SFFoyV-yTu_emAH-91S-77" vertex="1">
          <mxGeometry width="160" height="30" as="geometry" />
        </mxCell>
        <mxCell id="6SFFoyV-yTu_emAH-91S-79" value="D" style="rounded=1;whiteSpace=wrap;html=1;" parent="6SFFoyV-yTu_emAH-91S-77" vertex="1">
          <mxGeometry x="130" y="5" width="20" height="20" as="geometry" />
        </mxCell>
        <mxCell id="6SFFoyV-yTu_emAH-91S-80" value="R" style="rounded=1;whiteSpace=wrap;html=1;" parent="6SFFoyV-yTu_emAH-91S-77" vertex="1">
          <mxGeometry x="105" y="5" width="20" height="20" as="geometry" />
        </mxCell>
        <mxCell id="6SFFoyV-yTu_emAH-91S-81" value="U" style="rounded=1;whiteSpace=wrap;html=1;" parent="6SFFoyV-yTu_emAH-91S-77" vertex="1">
          <mxGeometry x="80" y="5" width="20" height="20" as="geometry" />
        </mxCell>
        <mxCell id="6SFFoyV-yTu_emAH-91S-82" style="edgeStyle=orthogonalEdgeStyle;rounded=0;orthogonalLoop=1;jettySize=auto;html=1;entryX=0.5;entryY=0;entryDx=0;entryDy=0;strokeColor=#00FF00;" parent="1" source="6SFFoyV-yTu_emAH-91S-79" target="6SFFoyV-yTu_emAH-91S-84" edge="1">
          <mxGeometry relative="1" as="geometry" />
        </mxCell>
        <mxCell id="6SFFoyV-yTu_emAH-91S-83" value="" style="group" parent="1" connectable="0" vertex="1">
          <mxGeometry x="950" y="570" width="240" height="290" as="geometry" />
        </mxCell>
        <mxCell id="6SFFoyV-yTu_emAH-91S-84" value="" style="rounded=0;whiteSpace=wrap;html=1;movable=0;resizable=0;rotatable=0;deletable=0;editable=0;locked=1;connectable=0;" parent="6SFFoyV-yTu_emAH-91S-83" vertex="1">
          <mxGeometry width="180" height="290" as="geometry" />
        </mxCell>
        <mxCell id="6SFFoyV-yTu_emAH-91S-85" value="&lt;span style=&quot;font-size: 24px;&quot;&gt;Beranda&lt;/span&gt;" style="text;html=1;strokeColor=none;fillColor=none;align=center;verticalAlign=middle;whiteSpace=wrap;rounded=0;" parent="6SFFoyV-yTu_emAH-91S-83" vertex="1">
          <mxGeometry x="40" y="10" width="100" height="60" as="geometry" />
        </mxCell>
        <mxCell id="6SFFoyV-yTu_emAH-91S-86" value="Tambah" style="rounded=1;whiteSpace=wrap;html=1;" parent="6SFFoyV-yTu_emAH-91S-83" vertex="1">
          <mxGeometry x="65" y="80" width="50" height="30" as="geometry" />
        </mxCell>
        <mxCell id="6SFFoyV-yTu_emAH-91S-87" value="" style="rounded=0;whiteSpace=wrap;html=1;" parent="6SFFoyV-yTu_emAH-91S-83" vertex="1">
          <mxGeometry x="10" y="130" width="160" height="150" as="geometry" />
        </mxCell>
        <mxCell id="6SFFoyV-yTu_emAH-91S-88" value="" style="rounded=0;whiteSpace=wrap;html=1;" parent="6SFFoyV-yTu_emAH-91S-83" vertex="1">
          <mxGeometry x="10" y="160" width="160" height="30" as="geometry" />
        </mxCell>
        <mxCell id="6SFFoyV-yTu_emAH-91S-89" value="" style="rounded=0;whiteSpace=wrap;html=1;" parent="6SFFoyV-yTu_emAH-91S-83" vertex="1">
          <mxGeometry x="10" y="190" width="160" height="30" as="geometry" />
        </mxCell>
        <mxCell id="6SFFoyV-yTu_emAH-91S-90" value="" style="rounded=0;whiteSpace=wrap;html=1;" parent="6SFFoyV-yTu_emAH-91S-83" vertex="1">
          <mxGeometry x="10" y="220" width="160" height="30" as="geometry" />
        </mxCell>
        <mxCell id="6SFFoyV-yTu_emAH-91S-91" value="" style="group" parent="6SFFoyV-yTu_emAH-91S-83" connectable="0" vertex="1">
          <mxGeometry x="10" y="130" width="160" height="90" as="geometry" />
        </mxCell>
        <mxCell id="6SFFoyV-yTu_emAH-91S-92" value="&lt;div style=&quot;&quot;&gt;&lt;span style=&quot;background-color: initial;&quot;&gt;Data 1&lt;/span&gt;&lt;/div&gt;" style="rounded=0;whiteSpace=wrap;html=1;align=left;" parent="6SFFoyV-yTu_emAH-91S-91" vertex="1">
          <mxGeometry width="160" height="30" as="geometry" />
        </mxCell>
        <mxCell id="6SFFoyV-yTu_emAH-91S-93" value="D" style="rounded=1;whiteSpace=wrap;html=1;" parent="6SFFoyV-yTu_emAH-91S-91" vertex="1">
          <mxGeometry x="130" y="5" width="20" height="20" as="geometry" />
        </mxCell>
        <mxCell id="6SFFoyV-yTu_emAH-91S-94" value="R" style="rounded=1;whiteSpace=wrap;html=1;" parent="6SFFoyV-yTu_emAH-91S-91" vertex="1">
          <mxGeometry x="105" y="5" width="20" height="20" as="geometry" />
        </mxCell>
        <mxCell id="6SFFoyV-yTu_emAH-91S-95" value="U" style="rounded=1;whiteSpace=wrap;html=1;" parent="6SFFoyV-yTu_emAH-91S-91" vertex="1">
          <mxGeometry x="80" y="5" width="20" height="20" as="geometry" />
        </mxCell>
        <mxCell id="6SFFoyV-yTu_emAH-91S-96" value="" style="group" parent="6SFFoyV-yTu_emAH-91S-83" connectable="0" vertex="1">
          <mxGeometry x="10" y="160" width="160" height="90" as="geometry" />
        </mxCell>
        <mxCell id="6SFFoyV-yTu_emAH-91S-97" value="&lt;div style=&quot;&quot;&gt;&lt;span style=&quot;background-color: initial;&quot;&gt;Data 2&lt;/span&gt;&lt;/div&gt;" style="rounded=0;whiteSpace=wrap;html=1;align=left;" parent="6SFFoyV-yTu_emAH-91S-96" vertex="1">
          <mxGeometry width="160" height="30" as="geometry" />
        </mxCell>
        <mxCell id="6SFFoyV-yTu_emAH-91S-98" value="D" style="rounded=1;whiteSpace=wrap;html=1;" parent="6SFFoyV-yTu_emAH-91S-96" vertex="1">
          <mxGeometry x="130" y="5" width="20" height="20" as="geometry" />
        </mxCell>
        <mxCell id="6SFFoyV-yTu_emAH-91S-99" value="R" style="rounded=1;whiteSpace=wrap;html=1;" parent="6SFFoyV-yTu_emAH-91S-96" vertex="1">
          <mxGeometry x="105" y="5" width="20" height="20" as="geometry" />
        </mxCell>
        <mxCell id="6SFFoyV-yTu_emAH-91S-100" value="U" style="rounded=1;whiteSpace=wrap;html=1;" parent="6SFFoyV-yTu_emAH-91S-96" vertex="1">
          <mxGeometry x="80" y="5" width="20" height="20" as="geometry" />
        </mxCell>
        <mxCell id="6SFFoyV-yTu_emAH-91S-101" value="" style="group" parent="6SFFoyV-yTu_emAH-91S-83" connectable="0" vertex="1">
          <mxGeometry x="10" y="190" width="160" height="95" as="geometry" />
        </mxCell>
        <mxCell id="6SFFoyV-yTu_emAH-91S-102" value="&lt;div style=&quot;&quot;&gt;&lt;span style=&quot;background-color: initial;&quot;&gt;Data 3&lt;/span&gt;&lt;/div&gt;" style="rounded=0;whiteSpace=wrap;html=1;align=left;" parent="6SFFoyV-yTu_emAH-91S-101" vertex="1">
          <mxGeometry width="160" height="30" as="geometry" />
        </mxCell>
        <mxCell id="6SFFoyV-yTu_emAH-91S-103" value="D" style="rounded=1;whiteSpace=wrap;html=1;" parent="6SFFoyV-yTu_emAH-91S-101" vertex="1">
          <mxGeometry x="130" y="5" width="20" height="20" as="geometry" />
        </mxCell>
        <mxCell id="6SFFoyV-yTu_emAH-91S-104" value="R" style="rounded=1;whiteSpace=wrap;html=1;" parent="6SFFoyV-yTu_emAH-91S-101" vertex="1">
          <mxGeometry x="105" y="5" width="20" height="20" as="geometry" />
        </mxCell>
        <mxCell id="6SFFoyV-yTu_emAH-91S-105" value="U" style="rounded=1;whiteSpace=wrap;html=1;" parent="6SFFoyV-yTu_emAH-91S-101" vertex="1">
          <mxGeometry x="80" y="5" width="20" height="20" as="geometry" />
        </mxCell>
        <mxCell id="6SFFoyV-yTu_emAH-91S-106" value="" style="group" parent="6SFFoyV-yTu_emAH-91S-83" connectable="0" vertex="1">
          <mxGeometry x="10" y="220" width="160" height="30" as="geometry" />
        </mxCell>
        <mxCell id="6SFFoyV-yTu_emAH-91S-107" value="&lt;div style=&quot;&quot;&gt;&lt;span style=&quot;background-color: initial;&quot;&gt;Data 4&lt;/span&gt;&lt;/div&gt;" style="rounded=0;whiteSpace=wrap;html=1;align=left;" parent="6SFFoyV-yTu_emAH-91S-106" vertex="1">
          <mxGeometry width="160" height="30" as="geometry" />
        </mxCell>
        <mxCell id="6SFFoyV-yTu_emAH-91S-108" value="D" style="rounded=1;whiteSpace=wrap;html=1;" parent="6SFFoyV-yTu_emAH-91S-106" vertex="1">
          <mxGeometry x="130" y="5" width="20" height="20" as="geometry" />
        </mxCell>
        <mxCell id="6SFFoyV-yTu_emAH-91S-109" value="R" style="rounded=1;whiteSpace=wrap;html=1;" parent="6SFFoyV-yTu_emAH-91S-106" vertex="1">
          <mxGeometry x="105" y="5" width="20" height="20" as="geometry" />
        </mxCell>
        <mxCell id="6SFFoyV-yTu_emAH-91S-110" value="U" style="rounded=1;whiteSpace=wrap;html=1;" parent="6SFFoyV-yTu_emAH-91S-106" vertex="1">
          <mxGeometry x="80" y="5" width="20" height="20" as="geometry" />
        </mxCell>
        <mxCell id="6SFFoyV-yTu_emAH-91S-111" value="" style="group" parent="6SFFoyV-yTu_emAH-91S-83" connectable="0" vertex="1">
          <mxGeometry x="10" y="250" width="160" height="30" as="geometry" />
        </mxCell>
        <mxCell id="6SFFoyV-yTu_emAH-91S-112" value="&lt;div style=&quot;&quot;&gt;&lt;span style=&quot;background-color: initial;&quot;&gt;Data 5&lt;/span&gt;&lt;/div&gt;" style="rounded=0;whiteSpace=wrap;html=1;align=left;" parent="6SFFoyV-yTu_emAH-91S-111" vertex="1">
          <mxGeometry width="160" height="30" as="geometry" />
        </mxCell>
        <mxCell id="6SFFoyV-yTu_emAH-91S-113" value="D" style="rounded=1;whiteSpace=wrap;html=1;" parent="6SFFoyV-yTu_emAH-91S-111" vertex="1">
          <mxGeometry x="130" y="5" width="20" height="20" as="geometry" />
        </mxCell>
        <mxCell id="6SFFoyV-yTu_emAH-91S-114" value="R" style="rounded=1;whiteSpace=wrap;html=1;" parent="6SFFoyV-yTu_emAH-91S-111" vertex="1">
          <mxGeometry x="105" y="5" width="20" height="20" as="geometry" />
        </mxCell>
        <mxCell id="6SFFoyV-yTu_emAH-91S-115" value="U" style="rounded=1;whiteSpace=wrap;html=1;" parent="6SFFoyV-yTu_emAH-91S-111" vertex="1">
          <mxGeometry x="80" y="5" width="20" height="20" as="geometry" />
        </mxCell>
        <mxCell id="6SFFoyV-yTu_emAH-91S-116" value="" style="rounded=0;whiteSpace=wrap;html=1;" parent="6SFFoyV-yTu_emAH-91S-83" vertex="1">
          <mxGeometry x="10" y="108" width="160" height="80" as="geometry" />
        </mxCell>
        <mxCell id="6SFFoyV-yTu_emAH-91S-117" value="&lt;font style=&quot;font-size: 11px;&quot;&gt;Apakah anda ingin menghapus?&lt;/font&gt;" style="text;html=1;strokeColor=none;fillColor=none;align=center;verticalAlign=middle;whiteSpace=wrap;rounded=0;" parent="6SFFoyV-yTu_emAH-91S-83" vertex="1">
          <mxGeometry x="10" y="108" width="157.5" height="30" as="geometry" />
        </mxCell>
        <mxCell id="6SFFoyV-yTu_emAH-91S-118" value="Ya" style="rounded=1;whiteSpace=wrap;html=1;" parent="6SFFoyV-yTu_emAH-91S-83" vertex="1">
          <mxGeometry x="20" y="150" width="40" height="30" as="geometry" />
        </mxCell>
        <mxCell id="6SFFoyV-yTu_emAH-91S-119" value="Tidak" style="rounded=1;whiteSpace=wrap;html=1;" parent="6SFFoyV-yTu_emAH-91S-83" vertex="1">
          <mxGeometry x="115" y="150" width="40" height="30" as="geometry" />
        </mxCell>
        <mxCell id="6SFFoyV-yTu_emAH-91S-120" style="edgeStyle=orthogonalEdgeStyle;rounded=0;orthogonalLoop=1;jettySize=auto;html=1;entryX=-0.008;entryY=0.542;entryDx=0;entryDy=0;entryPerimeter=0;strokeColor=#663300;" parent="1" source="6SFFoyV-yTu_emAH-91S-61" target="6SFFoyV-yTu_emAH-91S-26" edge="1">
          <mxGeometry relative="1" as="geometry">
            <Array as="points">
              <mxPoint x="870" y="10" />
              <mxPoint x="730" y="10" />
              <mxPoint x="730" y="-353" />
            </Array>
          </mxGeometry>
        </mxCell>
        <mxCell id="6SFFoyV-yTu_emAH-91S-121" style="edgeStyle=orthogonalEdgeStyle;rounded=0;orthogonalLoop=1;jettySize=auto;html=1;entryX=0;entryY=0.5;entryDx=0;entryDy=0;strokeColor=#250DFF;" parent="1" source="6SFFoyV-yTu_emAH-91S-52" target="6SFFoyV-yTu_emAH-91S-13" edge="1">
          <mxGeometry relative="1" as="geometry" />
        </mxCell>
        <mxCell id="6SFFoyV-yTu_emAH-91S-122" style="edgeStyle=orthogonalEdgeStyle;rounded=0;orthogonalLoop=1;jettySize=auto;html=1;strokeColor=#660033;exitX=0;exitY=0.5;exitDx=0;exitDy=0;entryX=-0.021;entryY=0.925;entryDx=0;entryDy=0;entryPerimeter=0;" parent="1" source="6SFFoyV-yTu_emAH-91S-48" target="6SFFoyV-yTu_emAH-91S-50" edge="1">
          <mxGeometry relative="1" as="geometry">
            <mxPoint x="735" y="440" as="sourcePoint" />
            <mxPoint x="700" y="360" as="targetPoint" />
            <Array as="points">
              <mxPoint x="700" y="520" />
              <mxPoint x="700" y="163" />
            </Array>
          </mxGeometry>
        </mxCell>
        <mxCell id="6SFFoyV-yTu_emAH-91S-123" value="" style="rounded=0;whiteSpace=wrap;html=1;" parent="1" vertex="1">
          <mxGeometry x="1360" y="250" width="210" height="280" as="geometry" />
        </mxCell>
        <mxCell id="6SFFoyV-yTu_emAH-91S-124" value="&lt;font style=&quot;font-size: 18px;&quot;&gt;Data anda telah dikirim&lt;/font&gt;" style="text;html=1;strokeColor=none;fillColor=none;align=center;verticalAlign=middle;whiteSpace=wrap;rounded=0;" parent="1" vertex="1">
          <mxGeometry x="1374.06" y="340" width="179.37" height="30" as="geometry" />
        </mxCell>
        <mxCell id="6SFFoyV-yTu_emAH-91S-125" style="edgeStyle=orthogonalEdgeStyle;rounded=0;orthogonalLoop=1;jettySize=auto;html=1;entryX=1;entryY=0.75;entryDx=0;entryDy=0;fillColor=#0050ef;strokeColor=#001DBC;exitX=0;exitY=0.5;exitDx=0;exitDy=0;" parent="1" source="6SFFoyV-yTu_emAH-91S-126" target="6SFFoyV-yTu_emAH-91S-50" edge="1">
          <mxGeometry relative="1" as="geometry">
            <mxPoint x="1552.25" y="427.53999999999996" as="sourcePoint" />
            <mxPoint x="970" y="110" as="targetPoint" />
            <Array as="points">
              <mxPoint x="1426" y="427" />
              <mxPoint x="1261" y="427" />
              <mxPoint x="1261" y="147" />
              <mxPoint x="970" y="147" />
              <mxPoint x="970" y="112" />
            </Array>
          </mxGeometry>
        </mxCell>
        <mxCell id="6SFFoyV-yTu_emAH-91S-126" value="Kembali" style="rounded=1;whiteSpace=wrap;html=1;" parent="1" vertex="1">
          <mxGeometry x="1426.25" y="420" width="77.5" height="40" as="geometry" />
        </mxCell>
        <mxCell id="6SFFoyV-yTu_emAH-91S-127" value="&lt;font style=&quot;font-size: 24px;&quot;&gt;Data Hasil Panen&lt;/font&gt;" style="text;html=1;strokeColor=none;fillColor=none;align=center;verticalAlign=middle;whiteSpace=wrap;rounded=0;" parent="1" vertex="1">
          <mxGeometry x="1407.5" y="280" width="115" height="30" as="geometry" />
        </mxCell>
        <mxCell id="6SFFoyV-yTu_emAH-91S-128" style="edgeStyle=orthogonalEdgeStyle;rounded=0;orthogonalLoop=1;jettySize=auto;html=1;entryX=0.5;entryY=0;entryDx=0;entryDy=0;fillColor=#0050ef;strokeColor=#001DBC;" parent="1" source="6SFFoyV-yTu_emAH-91S-25" target="6SFFoyV-yTu_emAH-91S-123" edge="1">
          <mxGeometry relative="1" as="geometry" />
        </mxCell>
      </root>
    </mxGraphModel>
  </diagram>
  <diagram name="Mandor" id="60dP8pg2xnSiQAldLUCq">
    <mxGraphModel grid="1" page="1" gridSize="10" guides="1" tooltips="1" connect="1" arrows="1" fold="1" pageScale="1" pageWidth="827" pageHeight="1169" math="0" shadow="0">
      <root>
        <mxCell id="0" />
        <mxCell id="1" parent="0" />
        <mxCell id="myP-sH1Ng56tJ5btgeLi-1" value="" style="rounded=0;whiteSpace=wrap;html=1;movable=0;resizable=0;rotatable=0;deletable=0;editable=0;locked=1;connectable=0;" vertex="1" parent="1">
          <mxGeometry x="40" y="30" width="1560" height="1180" as="geometry" />
        </mxCell>
        <mxCell id="q5E_AbjBxEwI7H7WWiqw-1" style="edgeStyle=orthogonalEdgeStyle;rounded=0;orthogonalLoop=1;jettySize=auto;html=1;entryX=0;entryY=0.5;entryDx=0;entryDy=0;fillColor=#60a917;strokeColor=#2D7600;" edge="1" parent="1" source="nLW3oGeiEsnqrwAUTEQz-1" target="nLW3oGeiEsnqrwAUTEQz-2">
          <mxGeometry relative="1" as="geometry" />
        </mxCell>
        <mxCell id="nLW3oGeiEsnqrwAUTEQz-1" value="" style="rounded=0;whiteSpace=wrap;html=1;" vertex="1" parent="1">
          <mxGeometry x="160" y="90" width="210" height="280" as="geometry" />
        </mxCell>
        <mxCell id="nLW3oGeiEsnqrwAUTEQz-2" value="" style="rounded=0;whiteSpace=wrap;html=1;" vertex="1" parent="1">
          <mxGeometry x="450" y="90" width="210" height="280" as="geometry" />
        </mxCell>
        <mxCell id="nLW3oGeiEsnqrwAUTEQz-3" value="&lt;font style=&quot;font-size: 36px;&quot;&gt;Kelapa Sawit&lt;/font&gt;" style="text;html=1;strokeColor=none;fillColor=none;align=center;verticalAlign=middle;whiteSpace=wrap;rounded=0;" vertex="1" parent="1">
          <mxGeometry x="200" y="210" width="130" height="50" as="geometry" />
        </mxCell>
        <mxCell id="nLW3oGeiEsnqrwAUTEQz-8" value="&lt;font style=&quot;font-size: 24px;&quot;&gt;Login&lt;/font&gt;" style="text;html=1;strokeColor=none;fillColor=none;align=center;verticalAlign=middle;whiteSpace=wrap;rounded=0;" vertex="1" parent="1">
          <mxGeometry x="505" y="100" width="100" height="60" as="geometry" />
        </mxCell>
        <mxCell id="nLW3oGeiEsnqrwAUTEQz-9" value="No. Hp" style="text;html=1;strokeColor=none;fillColor=none;align=center;verticalAlign=middle;whiteSpace=wrap;rounded=0;" vertex="1" parent="1">
          <mxGeometry x="470" y="200" width="60" height="30" as="geometry" />
        </mxCell>
        <mxCell id="nLW3oGeiEsnqrwAUTEQz-10" value="Password" style="text;html=1;strokeColor=none;fillColor=none;align=center;verticalAlign=middle;whiteSpace=wrap;rounded=0;" vertex="1" parent="1">
          <mxGeometry x="480" y="240" width="60" height="30" as="geometry" />
        </mxCell>
        <mxCell id="nLW3oGeiEsnqrwAUTEQz-11" value="" style="endArrow=none;html=1;rounded=0;exitX=0;exitY=1;exitDx=0;exitDy=0;" edge="1" parent="1">
          <mxGeometry width="50" height="50" relative="1" as="geometry">
            <mxPoint x="480" y="230" as="sourcePoint" />
            <mxPoint x="550" y="230" as="targetPoint" />
          </mxGeometry>
        </mxCell>
        <mxCell id="nLW3oGeiEsnqrwAUTEQz-12" value="" style="endArrow=none;html=1;rounded=0;exitX=0;exitY=1;exitDx=0;exitDy=0;" edge="1" parent="1">
          <mxGeometry width="50" height="50" relative="1" as="geometry">
            <mxPoint x="480" y="270" as="sourcePoint" />
            <mxPoint x="550" y="270" as="targetPoint" />
          </mxGeometry>
        </mxCell>
        <mxCell id="nLW3oGeiEsnqrwAUTEQz-13" value="Login" style="rounded=1;whiteSpace=wrap;html=1;" vertex="1" parent="1">
          <mxGeometry x="505" y="290" width="70" height="30" as="geometry" />
        </mxCell>
        <mxCell id="nLW3oGeiEsnqrwAUTEQz-25" value="" style="rounded=0;whiteSpace=wrap;html=1;" vertex="1" parent="1">
          <mxGeometry x="740" y="90" width="210" height="280" as="geometry" />
        </mxCell>
        <mxCell id="nLW3oGeiEsnqrwAUTEQz-26" style="edgeStyle=orthogonalEdgeStyle;rounded=0;orthogonalLoop=1;jettySize=auto;html=1;entryX=0;entryY=0.468;entryDx=0;entryDy=0;entryPerimeter=0;strokeColor=#250DFF;" edge="1" parent="1" source="nLW3oGeiEsnqrwAUTEQz-13" target="nLW3oGeiEsnqrwAUTEQz-25">
          <mxGeometry relative="1" as="geometry">
            <Array as="points">
              <mxPoint x="690" y="305" />
              <mxPoint x="690" y="221" />
            </Array>
          </mxGeometry>
        </mxCell>
        <mxCell id="nLW3oGeiEsnqrwAUTEQz-27" value="&lt;font style=&quot;font-size: 24px;&quot;&gt;Beranda Mandor&lt;/font&gt;" style="text;html=1;strokeColor=none;fillColor=none;align=center;verticalAlign=middle;whiteSpace=wrap;rounded=0;" vertex="1" parent="1">
          <mxGeometry x="815" y="130" width="60" height="30" as="geometry" />
        </mxCell>
        <mxCell id="nLW3oGeiEsnqrwAUTEQz-28" value="Lihat Data Panen Sawit" style="rounded=1;whiteSpace=wrap;html=1;" vertex="1" parent="1">
          <mxGeometry x="780" y="220" width="140" height="40" as="geometry" />
        </mxCell>
        <mxCell id="nLW3oGeiEsnqrwAUTEQz-31" style="edgeStyle=orthogonalEdgeStyle;rounded=0;orthogonalLoop=1;jettySize=auto;html=1;entryX=0.5;entryY=0;entryDx=0;entryDy=0;strokeColor=#00994D;" edge="1" parent="1" source="nLW3oGeiEsnqrwAUTEQz-29" target="nLW3oGeiEsnqrwAUTEQz-32">
          <mxGeometry relative="1" as="geometry">
            <mxPoint x="850" y="490" as="targetPoint" />
          </mxGeometry>
        </mxCell>
        <mxCell id="nLW3oGeiEsnqrwAUTEQz-29" value="Upload Laporan" style="rounded=1;whiteSpace=wrap;html=1;" vertex="1" parent="1">
          <mxGeometry x="780" y="280" width="137.5" height="30" as="geometry" />
        </mxCell>
        <mxCell id="nLW3oGeiEsnqrwAUTEQz-32" value="" style="rounded=0;whiteSpace=wrap;html=1;" vertex="1" parent="1">
          <mxGeometry x="743.75" y="460" width="210" height="280" as="geometry" />
        </mxCell>
        <mxCell id="nLW3oGeiEsnqrwAUTEQz-33" value="&lt;font style=&quot;font-size: 24px;&quot;&gt;Data Hasil Laporan&lt;/font&gt;" style="text;html=1;strokeColor=none;fillColor=none;align=center;verticalAlign=middle;whiteSpace=wrap;rounded=0;" vertex="1" parent="1">
          <mxGeometry x="787.5" y="490" width="125" height="30" as="geometry" />
        </mxCell>
        <mxCell id="nLW3oGeiEsnqrwAUTEQz-39" style="edgeStyle=orthogonalEdgeStyle;rounded=0;orthogonalLoop=1;jettySize=auto;html=1;strokeColor=#00994D;" edge="1" parent="1" source="nLW3oGeiEsnqrwAUTEQz-34" target="nLW3oGeiEsnqrwAUTEQz-38">
          <mxGeometry relative="1" as="geometry" />
        </mxCell>
        <mxCell id="nLW3oGeiEsnqrwAUTEQz-34" value="Kirim" style="rounded=1;whiteSpace=wrap;html=1;" vertex="1" parent="1">
          <mxGeometry x="811.25" y="690" width="77.5" height="40" as="geometry" />
        </mxCell>
        <mxCell id="nLW3oGeiEsnqrwAUTEQz-35" value="File Laporan" style="rounded=0;whiteSpace=wrap;html=1;" vertex="1" parent="1">
          <mxGeometry x="760" y="540" width="180" height="140" as="geometry" />
        </mxCell>
        <mxCell id="nLW3oGeiEsnqrwAUTEQz-38" value="" style="rounded=0;whiteSpace=wrap;html=1;" vertex="1" parent="1">
          <mxGeometry x="745" y="800" width="210" height="280" as="geometry" />
        </mxCell>
        <mxCell id="nLW3oGeiEsnqrwAUTEQz-40" value="&lt;font style=&quot;font-size: 24px;&quot;&gt;Data Hasil Laporan&lt;/font&gt;" style="text;html=1;strokeColor=none;fillColor=none;align=center;verticalAlign=middle;whiteSpace=wrap;rounded=0;" vertex="1" parent="1">
          <mxGeometry x="779.38" y="830" width="131.25" height="30" as="geometry" />
        </mxCell>
        <mxCell id="nLW3oGeiEsnqrwAUTEQz-41" value="&lt;font style=&quot;font-size: 18px;&quot;&gt;File anda telah kirim&lt;/font&gt;" style="text;html=1;strokeColor=none;fillColor=none;align=center;verticalAlign=middle;whiteSpace=wrap;rounded=0;" vertex="1" parent="1">
          <mxGeometry x="759.06" y="890" width="179.37" height="30" as="geometry" />
        </mxCell>
        <mxCell id="d3lOkVafWizrDIIPl7rx-30" style="edgeStyle=orthogonalEdgeStyle;rounded=0;orthogonalLoop=1;jettySize=auto;html=1;entryX=1;entryY=0.75;entryDx=0;entryDy=0;strokeColor=#00994D;" edge="1" parent="1" source="nLW3oGeiEsnqrwAUTEQz-43" target="nLW3oGeiEsnqrwAUTEQz-25">
          <mxGeometry relative="1" as="geometry">
            <mxPoint x="1020" y="290" as="targetPoint" />
            <Array as="points">
              <mxPoint x="980" y="990" />
              <mxPoint x="980" y="300" />
            </Array>
          </mxGeometry>
        </mxCell>
        <mxCell id="nLW3oGeiEsnqrwAUTEQz-43" value="Kembali" style="rounded=1;whiteSpace=wrap;html=1;" vertex="1" parent="1">
          <mxGeometry x="811.25" y="970" width="77.5" height="40" as="geometry" />
        </mxCell>
        <mxCell id="nLW3oGeiEsnqrwAUTEQz-44" value="" style="rounded=0;whiteSpace=wrap;html=1;" vertex="1" parent="1">
          <mxGeometry x="1040" y="90" width="210" height="280" as="geometry" />
        </mxCell>
        <mxCell id="nLW3oGeiEsnqrwAUTEQz-46" style="edgeStyle=orthogonalEdgeStyle;rounded=0;orthogonalLoop=1;jettySize=auto;html=1;entryX=0.005;entryY=0.536;entryDx=0;entryDy=0;entryPerimeter=0;strokeColor=#99004D;" edge="1" parent="1" source="nLW3oGeiEsnqrwAUTEQz-28" target="nLW3oGeiEsnqrwAUTEQz-44">
          <mxGeometry relative="1" as="geometry" />
        </mxCell>
        <mxCell id="nLW3oGeiEsnqrwAUTEQz-47" value="&lt;font style=&quot;font-size: 24px;&quot;&gt;Data Hasil Panen Sawit&lt;/font&gt;" style="text;html=1;strokeColor=none;fillColor=none;align=center;verticalAlign=middle;whiteSpace=wrap;rounded=0;" vertex="1" parent="1">
          <mxGeometry x="1080" y="110" width="137.5" height="30" as="geometry" />
        </mxCell>
        <mxCell id="d3lOkVafWizrDIIPl7rx-6" value="" style="group" connectable="0" vertex="1" parent="1">
          <mxGeometry x="1070" y="210" width="160" height="30" as="geometry" />
        </mxCell>
        <mxCell id="d3lOkVafWizrDIIPl7rx-7" value="&lt;div style=&quot;&quot;&gt;&lt;span style=&quot;background-color: initial;&quot;&gt;Data 2&lt;/span&gt;&lt;/div&gt;" style="rounded=0;whiteSpace=wrap;html=1;align=left;" vertex="1" parent="d3lOkVafWizrDIIPl7rx-6">
          <mxGeometry width="160" height="30" as="geometry" />
        </mxCell>
        <mxCell id="d3lOkVafWizrDIIPl7rx-9" value="R" style="rounded=1;whiteSpace=wrap;html=1;" vertex="1" parent="d3lOkVafWizrDIIPl7rx-6">
          <mxGeometry x="105" y="5" width="45" height="20" as="geometry" />
        </mxCell>
        <mxCell id="d3lOkVafWizrDIIPl7rx-11" value="" style="group" connectable="0" vertex="1" parent="1">
          <mxGeometry x="1070" y="240" width="160" height="30" as="geometry" />
        </mxCell>
        <mxCell id="d3lOkVafWizrDIIPl7rx-12" value="&lt;div style=&quot;&quot;&gt;&lt;span style=&quot;background-color: initial;&quot;&gt;Data 3&lt;/span&gt;&lt;/div&gt;" style="rounded=0;whiteSpace=wrap;html=1;align=left;" vertex="1" parent="d3lOkVafWizrDIIPl7rx-11">
          <mxGeometry width="160" height="30" as="geometry" />
        </mxCell>
        <mxCell id="d3lOkVafWizrDIIPl7rx-14" value="R" style="rounded=1;whiteSpace=wrap;html=1;" vertex="1" parent="d3lOkVafWizrDIIPl7rx-11">
          <mxGeometry x="105" y="5" width="45" height="20" as="geometry" />
        </mxCell>
        <mxCell id="d3lOkVafWizrDIIPl7rx-16" value="" style="group" connectable="0" vertex="1" parent="1">
          <mxGeometry x="1070" y="270" width="160" height="30" as="geometry" />
        </mxCell>
        <mxCell id="d3lOkVafWizrDIIPl7rx-17" value="&lt;div style=&quot;&quot;&gt;&lt;span style=&quot;background-color: initial;&quot;&gt;Data 4&lt;/span&gt;&lt;/div&gt;" style="rounded=0;whiteSpace=wrap;html=1;align=left;" vertex="1" parent="d3lOkVafWizrDIIPl7rx-16">
          <mxGeometry width="160" height="30" as="geometry" />
        </mxCell>
        <mxCell id="d3lOkVafWizrDIIPl7rx-19" value="R" style="rounded=1;whiteSpace=wrap;html=1;" vertex="1" parent="d3lOkVafWizrDIIPl7rx-16">
          <mxGeometry x="105" y="5" width="45" height="20" as="geometry" />
        </mxCell>
        <mxCell id="d3lOkVafWizrDIIPl7rx-21" value="" style="group" connectable="0" vertex="1" parent="1">
          <mxGeometry x="1070" y="300" width="160" height="30" as="geometry" />
        </mxCell>
        <mxCell id="d3lOkVafWizrDIIPl7rx-22" value="&lt;div style=&quot;&quot;&gt;&lt;span style=&quot;background-color: initial;&quot;&gt;Data 5&lt;/span&gt;&lt;/div&gt;" style="rounded=0;whiteSpace=wrap;html=1;align=left;" vertex="1" parent="d3lOkVafWizrDIIPl7rx-21">
          <mxGeometry width="160" height="30" as="geometry" />
        </mxCell>
        <mxCell id="d3lOkVafWizrDIIPl7rx-24" value="R" style="rounded=1;whiteSpace=wrap;html=1;" vertex="1" parent="d3lOkVafWizrDIIPl7rx-21">
          <mxGeometry x="105" y="5" width="45" height="20" as="geometry" />
        </mxCell>
        <mxCell id="d3lOkVafWizrDIIPl7rx-2" value="&lt;div style=&quot;&quot;&gt;&lt;span style=&quot;background-color: initial;&quot;&gt;Data 1&lt;/span&gt;&lt;/div&gt;" style="rounded=0;whiteSpace=wrap;html=1;align=left;" vertex="1" parent="1">
          <mxGeometry x="1070" y="180" width="160" height="30" as="geometry" />
        </mxCell>
        <mxCell id="d3lOkVafWizrDIIPl7rx-28" style="edgeStyle=orthogonalEdgeStyle;rounded=0;orthogonalLoop=1;jettySize=auto;html=1;strokeColor=#0e8088;entryX=0.75;entryY=0;entryDx=0;entryDy=0;exitX=1;exitY=0.5;exitDx=0;exitDy=0;fillColor=#b0e3e6;" edge="1" parent="1" source="d3lOkVafWizrDIIPl7rx-24" target="stYuJXnKXHsL_Y0Q-5s9-1">
          <mxGeometry relative="1" as="geometry">
            <mxPoint x="1270" y="460" as="targetPoint" />
            <mxPoint x="1200" y="320" as="sourcePoint" />
            <Array as="points">
              <mxPoint x="1255" y="315" />
            </Array>
          </mxGeometry>
        </mxCell>
        <mxCell id="d3lOkVafWizrDIIPl7rx-4" value="R" style="rounded=1;whiteSpace=wrap;html=1;" vertex="1" parent="1">
          <mxGeometry x="1175" y="185" width="45" height="20" as="geometry" />
        </mxCell>
        <mxCell id="d3lOkVafWizrDIIPl7rx-29" value="kembali" style="rounded=1;whiteSpace=wrap;html=1;" vertex="1" parent="1">
          <mxGeometry x="1120" y="340" width="60" height="20" as="geometry" />
        </mxCell>
        <mxCell id="d3lOkVafWizrDIIPl7rx-32" style="edgeStyle=orthogonalEdgeStyle;rounded=0;orthogonalLoop=1;jettySize=auto;html=1;entryX=0.695;entryY=1.007;entryDx=0;entryDy=0;entryPerimeter=0;strokeColor=#99004D;" edge="1" parent="1" source="d3lOkVafWizrDIIPl7rx-29" target="nLW3oGeiEsnqrwAUTEQz-25">
          <mxGeometry relative="1" as="geometry">
            <Array as="points">
              <mxPoint x="1150" y="410" />
              <mxPoint x="886" y="410" />
            </Array>
          </mxGeometry>
        </mxCell>
        <mxCell id="stYuJXnKXHsL_Y0Q-5s9-1" value="" style="rounded=0;whiteSpace=wrap;html=1;" vertex="1" parent="1">
          <mxGeometry x="1120" y="470" width="180" height="290" as="geometry" />
        </mxCell>
        <mxCell id="stYuJXnKXHsL_Y0Q-5s9-2" value="&lt;font style=&quot;font-size: 18px;&quot;&gt;Data Hasil Panen&lt;/font&gt;" style="text;html=1;strokeColor=none;fillColor=none;align=center;verticalAlign=middle;whiteSpace=wrap;rounded=0;" vertex="1" parent="1">
          <mxGeometry x="1126.25" y="480" width="167.5" height="30" as="geometry" />
        </mxCell>
        <mxCell id="stYuJXnKXHsL_Y0Q-5s9-3" value="10 Oktober 2010" style="text;html=1;strokeColor=none;fillColor=none;align=center;verticalAlign=middle;whiteSpace=wrap;rounded=0;" vertex="1" parent="1">
          <mxGeometry x="1160" y="505" width="100" height="30" as="geometry" />
        </mxCell>
        <mxCell id="stYuJXnKXHsL_Y0Q-5s9-4" value="Foto Hasil Panen Sawit&amp;nbsp;" style="rounded=0;whiteSpace=wrap;html=1;align=left;" vertex="1" parent="1">
          <mxGeometry x="1127" y="560" width="163" height="20" as="geometry" />
        </mxCell>
        <mxCell id="stYuJXnKXHsL_Y0Q-5s9-5" value="Hasil Input Data" style="rounded=0;whiteSpace=wrap;html=1;align=left;" vertex="1" parent="1">
          <mxGeometry x="1127" y="590" width="163" height="90" as="geometry" />
        </mxCell>
        <mxCell id="stYuJXnKXHsL_Y0Q-5s9-6" value="Tanda Tangan" style="rounded=0;whiteSpace=wrap;html=1;align=left;" vertex="1" parent="1">
          <mxGeometry x="1169.25" y="690" width="81.5" height="30" as="geometry" />
        </mxCell>
        <mxCell id="stYuJXnKXHsL_Y0Q-5s9-8" style="edgeStyle=orthogonalEdgeStyle;rounded=0;orthogonalLoop=1;jettySize=auto;html=1;strokeColor=#0e8088;exitX=0;exitY=0.5;exitDx=0;exitDy=0;fillColor=#b0e3e6;" edge="1" parent="1" source="stYuJXnKXHsL_Y0Q-5s9-7" target="nLW3oGeiEsnqrwAUTEQz-25">
          <mxGeometry relative="1" as="geometry">
            <mxPoint x="1050" y="570" as="targetPoint" />
            <Array as="points">
              <mxPoint x="1010" y="740" />
              <mxPoint x="1010" y="230" />
            </Array>
          </mxGeometry>
        </mxCell>
        <mxCell id="stYuJXnKXHsL_Y0Q-5s9-7" value="Kembali" style="rounded=1;whiteSpace=wrap;html=1;" vertex="1" parent="1">
          <mxGeometry x="1185" y="730" width="50" height="20" as="geometry" />
        </mxCell>
      </root>
    </mxGraphModel>
  </diagram>
</mxfile>
